<mxfile host="app.diagrams.net" agent="Mozilla/5.0 (Windows NT 10.0; Win64; x64) AppleWebKit/537.36 (KHTML, like Gecko) Chrome/131.0.0.0 Safari/537.36" version="25.0.3">
  <diagram name="Page-1" id="6T4qsqivxqvrZ7MX3iYm">
    <mxGraphModel dx="1985" dy="803" grid="1" gridSize="10" guides="1" tooltips="1" connect="1" arrows="1" fold="1" page="1" pageScale="1" pageWidth="850" pageHeight="1100" math="0" shadow="0">
      <root>
        <mxCell id="0" />
        <mxCell id="1" parent="0" />
        <mxCell id="-LnCVVdrkijfgitVFEL--15" style="edgeStyle=orthogonalEdgeStyle;rounded=0;orthogonalLoop=1;jettySize=auto;html=1;exitX=0.5;exitY=0.5;exitDx=0;exitDy=0;exitPerimeter=0;entryX=0;entryY=0.5;entryDx=0;entryDy=0;" edge="1" parent="1" source="-LnCVVdrkijfgitVFEL--1" target="-LnCVVdrkijfgitVFEL--8">
          <mxGeometry relative="1" as="geometry" />
        </mxCell>
        <mxCell id="-LnCVVdrkijfgitVFEL--16" style="edgeStyle=orthogonalEdgeStyle;rounded=0;orthogonalLoop=1;jettySize=auto;html=1;exitX=1;exitY=1;exitDx=0;exitDy=0;exitPerimeter=0;entryX=0;entryY=0.5;entryDx=0;entryDy=0;" edge="1" parent="1" source="-LnCVVdrkijfgitVFEL--1" target="-LnCVVdrkijfgitVFEL--9">
          <mxGeometry relative="1" as="geometry" />
        </mxCell>
        <mxCell id="-LnCVVdrkijfgitVFEL--17" style="edgeStyle=orthogonalEdgeStyle;rounded=0;orthogonalLoop=1;jettySize=auto;html=1;exitX=0.5;exitY=0.5;exitDx=0;exitDy=0;exitPerimeter=0;entryX=0;entryY=0.5;entryDx=0;entryDy=0;" edge="1" parent="1" source="-LnCVVdrkijfgitVFEL--1" target="-LnCVVdrkijfgitVFEL--10">
          <mxGeometry relative="1" as="geometry" />
        </mxCell>
        <mxCell id="-LnCVVdrkijfgitVFEL--18" style="edgeStyle=orthogonalEdgeStyle;rounded=0;orthogonalLoop=1;jettySize=auto;html=1;exitX=0;exitY=1;exitDx=0;exitDy=0;exitPerimeter=0;entryX=0;entryY=0.5;entryDx=0;entryDy=0;" edge="1" parent="1" source="-LnCVVdrkijfgitVFEL--1" target="-LnCVVdrkijfgitVFEL--11">
          <mxGeometry relative="1" as="geometry" />
        </mxCell>
        <mxCell id="-LnCVVdrkijfgitVFEL--1" value="HRD" style="shape=umlActor;verticalLabelPosition=bottom;verticalAlign=top;html=1;outlineConnect=0;" vertex="1" parent="1">
          <mxGeometry x="110" y="210" width="30" height="60" as="geometry" />
        </mxCell>
        <mxCell id="-LnCVVdrkijfgitVFEL--4" value="" style="html=1;whiteSpace=wrap;fillColor=none;" vertex="1" parent="1">
          <mxGeometry x="210" y="200" width="410" height="450" as="geometry" />
        </mxCell>
        <mxCell id="-LnCVVdrkijfgitVFEL--13" style="edgeStyle=orthogonalEdgeStyle;rounded=0;orthogonalLoop=1;jettySize=auto;html=1;exitX=1;exitY=0.3333333333333333;exitDx=0;exitDy=0;exitPerimeter=0;entryX=0;entryY=0.5;entryDx=0;entryDy=0;" edge="1" parent="1" source="-LnCVVdrkijfgitVFEL--5" target="-LnCVVdrkijfgitVFEL--7">
          <mxGeometry relative="1" as="geometry" />
        </mxCell>
        <mxCell id="-LnCVVdrkijfgitVFEL--5" value="Kandidat" style="shape=umlActor;verticalLabelPosition=bottom;verticalAlign=top;html=1;outlineConnect=0;" vertex="1" parent="1">
          <mxGeometry x="110" y="340" width="30" height="60" as="geometry" />
        </mxCell>
        <mxCell id="-LnCVVdrkijfgitVFEL--19" style="edgeStyle=orthogonalEdgeStyle;rounded=0;orthogonalLoop=1;jettySize=auto;html=1;exitX=0.5;exitY=0;exitDx=0;exitDy=0;entryX=1;entryY=0.5;entryDx=0;entryDy=0;" edge="1" parent="1" source="-LnCVVdrkijfgitVFEL--6" target="-LnCVVdrkijfgitVFEL--8">
          <mxGeometry relative="1" as="geometry" />
        </mxCell>
        <mxCell id="-LnCVVdrkijfgitVFEL--20" style="edgeStyle=orthogonalEdgeStyle;rounded=0;orthogonalLoop=1;jettySize=auto;html=1;exitX=0.5;exitY=1;exitDx=0;exitDy=0;entryX=1;entryY=0.5;entryDx=0;entryDy=0;" edge="1" parent="1" source="-LnCVVdrkijfgitVFEL--6" target="-LnCVVdrkijfgitVFEL--10">
          <mxGeometry relative="1" as="geometry" />
        </mxCell>
        <mxCell id="-LnCVVdrkijfgitVFEL--21" style="edgeStyle=orthogonalEdgeStyle;rounded=0;orthogonalLoop=1;jettySize=auto;html=1;exitX=0;exitY=0.5;exitDx=0;exitDy=0;entryX=1;entryY=0.5;entryDx=0;entryDy=0;" edge="1" parent="1" source="-LnCVVdrkijfgitVFEL--6" target="-LnCVVdrkijfgitVFEL--9">
          <mxGeometry relative="1" as="geometry" />
        </mxCell>
        <mxCell id="-LnCVVdrkijfgitVFEL--22" style="edgeStyle=orthogonalEdgeStyle;rounded=0;orthogonalLoop=1;jettySize=auto;html=1;exitX=0.5;exitY=1;exitDx=0;exitDy=0;entryX=1;entryY=0.5;entryDx=0;entryDy=0;" edge="1" parent="1" source="-LnCVVdrkijfgitVFEL--6" target="-LnCVVdrkijfgitVFEL--11">
          <mxGeometry relative="1" as="geometry" />
        </mxCell>
        <mxCell id="-LnCVVdrkijfgitVFEL--6" value="Login" style="ellipse;whiteSpace=wrap;html=1;" vertex="1" parent="1">
          <mxGeometry x="500" y="400" width="80" height="30" as="geometry" />
        </mxCell>
        <mxCell id="-LnCVVdrkijfgitVFEL--7" value="Upload Berkas" style="ellipse;whiteSpace=wrap;html=1;" vertex="1" parent="1">
          <mxGeometry x="310" y="215" width="100" height="50" as="geometry" />
        </mxCell>
        <mxCell id="-LnCVVdrkijfgitVFEL--8" value="Scan Jawaban Psikotest" style="ellipse;whiteSpace=wrap;html=1;" vertex="1" parent="1">
          <mxGeometry x="310" y="300" width="100" height="50" as="geometry" />
        </mxCell>
        <mxCell id="-LnCVVdrkijfgitVFEL--9" value="Input Kandidat" style="ellipse;whiteSpace=wrap;html=1;" vertex="1" parent="1">
          <mxGeometry x="310" y="390" width="100" height="50" as="geometry" />
        </mxCell>
        <mxCell id="-LnCVVdrkijfgitVFEL--10" value="Approval Psikotest" style="ellipse;whiteSpace=wrap;html=1;" vertex="1" parent="1">
          <mxGeometry x="310" y="500" width="100" height="50" as="geometry" />
        </mxCell>
        <mxCell id="-LnCVVdrkijfgitVFEL--11" value="Kontrak Perjanjian" style="ellipse;whiteSpace=wrap;html=1;" vertex="1" parent="1">
          <mxGeometry x="310" y="580" width="100" height="50" as="geometry" />
        </mxCell>
      </root>
    </mxGraphModel>
  </diagram>
</mxfile>
